<?xml version="1.0" encoding="UTF-8" standalone="no"?>
<svg
   xmlns:dc="http://purl.org/dc/elements/1.1/"
   xmlns:cc="http://creativecommons.org/ns#"
   xmlns:rdf="http://www.w3.org/1999/02/22-rdf-syntax-ns#"
   xmlns:svg="http://www.w3.org/2000/svg"
   xmlns="http://www.w3.org/2000/svg"
   xmlns:sodipodi="http://sodipodi.sourceforge.net/DTD/sodipodi-0.dtd"
   xmlns:inkscape="http://www.inkscape.org/namespaces/inkscape"
   version="1.1"
   id="Capa_1"
   x="0px"
   y="0px"
   width="1em"
   height="1em"
   viewBox="0 0 512 512"
   style="enable-background:new 0 0 512 512;"
   xml:space="preserve"
   sodipodi:docname="search.svg"
   inkscape:version="0.92.4 (5da689c313, 2019-01-14)"><metadata
   id="metadata3750"><rdf:RDF><cc:Work
       rdf:about=""><dc:format>image/svg+xml</dc:format><dc:type
         rdf:resource="http://purl.org/dc/dcmitype/StillImage" /><dc:title /></cc:Work></rdf:RDF></metadata><defs
   id="defs3748" /><sodipodi:namedview
   pagecolor="#ffffff"
   bordercolor="#666666"
   borderopacity="1"
   objecttolerance="10"
   gridtolerance="10"
   guidetolerance="10"
   inkscape:pageopacity="0"
   inkscape:pageshadow="2"
   inkscape:window-width="1366"
   inkscape:window-height="705"
   id="namedview3746"
   showgrid="false"
   inkscape:zoom="1"
   inkscape:cx="115.51272"
   inkscape:cy="266.19411"
   inkscape:window-x="-8"
   inkscape:window-y="89"
   inkscape:window-maximized="1"
   inkscape:current-layer="Capa_1" />
	<path
   d="M493.25,402.75L393.094,302.562C407.625,274.172,416,242.094,416,208C416,93.125,322.875,0,208,0C93.109,0,0,93.125,0,208   s93.109,208,208,208c33.953,0,65.906-8.312,94.219-22.719c-0.031,0-0.094,0.031-0.125,0.062c0.156-0.094,0.344-0.156,0.531-0.25   L402.75,493.25c25.031,25,65.562,25,90.5,0C518.25,468.281,518.25,427.75,493.25,402.75z M48,208c0-88.219,71.781-160,160-160   c88.219,0,160,71.781,160,160s-71.781,160-160,160S48,296.219,48,208z M459.312,436.656c-6.25,6.25-16.375,6.25-22.625,0   l-45.25-45.25c-6.25-6.25-6.25-16.375,0-22.625s16.375-6.25,22.625,0l45.25,45.25C465.594,420.281,465.594,430.406,459.312,436.656   z"
   id="path3743"
   style="fill:#cccccc;fill-opacity:0.97989953" />
</svg>