<svg width="83" height="48" viewBox="0 0 83 48" version="1.1" xmlns="http://www.w3.org/2000/svg" xmlns:xlink="http://www.w3.org/1999/xlink">
<title>footerLogo</title>
<desc>Created using Figma</desc>
<g id="Canvas" transform="translate(-21466 -1717)">
<g id="footerLogo">
<g id="&#208;&#161;&#208;&#187;&#208;&#190;&#208;&#185; 2">
<g id="&#208;&#161;&#208;&#187;&#208;&#190;&#208;&#185; 1">
<g id="Vector">
<use xlink:href="#path0_fill" transform="translate(21515.1 1749.55)" fill="#FFFFFF"/>
</g>
<g id="Vector">
<use xlink:href="#path1_fill" transform="translate(21500.9 1724.69)" fill="#FFFFFF"/>
</g>
<g id="Vector">
<use xlink:href="#path2_fill" transform="translate(21504.5 1729.33)" fill="#FFFFFF"/>
</g>
<g id="Vector">
<use xlink:href="#path3_fill" transform="translate(21503.9 1717.77)" fill="#FFFFFF"/>
</g>
<g id="Vector">
<use xlink:href="#path4_fill" transform="translate(21479.9 1760.19)" fill="#FFFFFF"/>
</g>
<clipPath id="clip-0" clip-rule="evenodd">
<path d="M 21479.9 1760.17L 21509.6 1760.17L 21509.6 1764.42L 21479.9 1764.42L 21479.9 1760.17Z" fill="#FFFFFF"/>
</clipPath>
<g id="Group" clip-path="url(#clip-0)">
</g>
<g id="Vector">
<use xlink:href="#path5_fill" transform="translate(21466 1757.79)" fill="#FFFFFF"/>
</g>
<g id="Vector">
<use xlink:href="#path6_fill" transform="translate(21486.2 1737.57)" fill="#FFFFFF"/>
</g>
<g id="Vector">
<use xlink:href="#path7_fill" transform="translate(21487.5 1733.48)" fill="#FFFFFF"/>
</g>
<g id="Vector">
<use xlink:href="#path8_fill" transform="translate(21510.2 1751.92)" fill="#FFFFFF"/>
</g>
</g>
</g>
</g>
</g>
<defs>
<path id="path0_fill" fill-rule="evenodd" d="M -1.26219e-06 7.64325C 1.01973 7.89394 2.09629 7.75531 3.01925 7.25446C 6.61753 5.31057 6.42728 2.05144 9.67814 1.26219e-06C 4.18559 1.26219e-06 4.3593 6.08813 0.0248166 7.64325L -1.26219e-06 7.64325Z"/>
<path id="path1_fill" fill-rule="evenodd" d="M 10.9941 35.0646C 9.58783 32.9884 8.07407 31.3836 7.34614 28.3313C 7.40404 28.3892 7.48677 28.3892 7.54467 28.4967C 7.60257 28.6043 7.68529 28.6125 7.71011 28.6374C 9.28177 30.1511 11.0768 32.8229 13.9968 33.0463C 12.0032 30.2669 10.8286 30.2669 8.52075 25.1549C 6.93821 21.6366 6.2723 17.775 6.58513 13.9299C 10.6135 13.3922 14.6751 15.1045 16.4039 17.1229C 15.8745 12.6312 10.1999 11.3325 6.01436 10.6129C 1.16702 9.73604 0.0751332 2.19206 5.55114 0.363964L 4.14491 3.15548e-07C 3.6719 0.0324429 3.2117 0.16796 2.79659 0.397052C 2.07397 0.745639 1.4908 1.32881 1.14221 2.05143C -2.62151 9.93456 3.4997 32.3101 10.9941 35.0646Z"/>
<path id="path2_fill" fill-rule="evenodd" d="M 1.80562 0.0279297C 2.16729 -0.0370865 2.54023 0.0120601 2.8727 0.168552C 3.21867 0.31136 3.51699 0.549444 3.73298 0.855121C 3.95301 1.15252 4.09776 1.49878 4.15485 1.86429C 4.20667 2.23428 4.1581 2.6114 4.01423 2.95619C 3.89172 3.30418 3.6668 3.60696 3.36902 3.82474C 3.08924 4.06294 2.74816 4.21771 2.38466 4.27142C 2.02287 4.30806 1.65753 4.25991 1.31759 4.1308C 0.968077 3.99844 0.665768 3.76524 0.449032 3.46077C 0.224115 3.16617 0.0788313 2.81863 0.027166 2.4516C -0.0329155 2.08384 0.00708513 1.70668 0.142972 1.35971C 0.292408 1.02004 0.522389 0.721919 0.812998 0.491157C 1.09314 0.245568 1.43746 0.084886 1.80562 0.0279297L 1.80562 0.0279297Z"/>
<path id="path3_fill" fill-rule="evenodd" d="M 2.21705 0.010225C 2.34628 -0.00340833 2.47659 -0.00340833 2.60583 0.010225C 3.07004 -0.00279092 3.52859 0.114712 3.92933 0.349373C 4.3185 0.5851 4.64488 0.911472 4.8806 1.30064C 5.02783 1.59063 5.12302 1.9042 5.16185 2.2271L 5.16185 2.2271C 5.16185 2.36772 5.16185 2.48353 5.16185 2.59106C 5.16355 3.05394 5.04679 3.50955 4.8227 3.91457C 4.58697 4.30374 4.2606 4.63011 3.87143 4.86584C 3.46641 5.08993 3.0108 5.20668 2.54792 5.20499C 2.09519 5.20938 1.64957 5.09226 1.2575 4.86584C 0.87753 4.6374 0.568299 4.30812 0.364139 3.91457C 0.120792 3.51639 -0.00535802 3.05768 0.000172988 2.59106C -0.00501159 2.13489 0.121352 1.68688 0.364139 1.30064C 0.584005 0.89931 0.914074 0.569239 1.31541 0.349373C 1.58417 0.165208 1.89353 0.048844 2.21705 0.010225L 2.21705 0.010225Z"/>
<path id="path4_fill" fill-rule="evenodd" d="M -6.31097e-08 2.9575C 0.562729 2.85401 1.11604 2.70462 1.65438 2.51082C 12.4079 -0.24373 16.337 7.22581 26.6935 2.79206C 27.7503 2.38274 28.7575 1.85552 29.6962 1.2204C 28.6291 1.38584 27.3138 1.86561 26.1062 2.08895C 17.1229 3.68543 13.3343 -1.21982 6.36937 0.293944C 4.11234 0.819668 1.95938 1.71999 -6.31097e-08 2.9575Z"/>
<path id="path5_fill" fill-rule="evenodd" d="M 6.79591e-15 3.60642C 0.727928 4.81412 3.54038 6.18725 5.50082 6.31133C 9.54578 6.59258 14.0871 3.55679 17.9087 2.17538C 20.7129 1.19102 21.9537 1.13312 25.0143 1.53017C 23.0809 0.423472 20.8694 -0.102122 18.6449 0.0164074C 14.236 0.413459 11.1505 3.41616 6.85741 4.30953C 5.66739 4.57286 4.43872 4.61213 3.23432 4.42534C 2.13697 4.23493 1.05574 3.96116 0 3.60642L 6.79591e-15 3.60642Z"/>
<path id="path6_fill" d="M 4.5594 0.54861C 4.5594 0.54861 6.7101 -0.832799 9.96923 0.788496C 13.4269 2.50905 13.5675 8.531 12.0207 10.1771C 12.8479 7.61282 12.6245 2.99709 8.91042 4.38678C 8.91042 4.38678 11.6898 16.7946 21.5995 21.3773C 18.9443 22.1135 12.0786 18.267 8.30657 13.3039C 4.81583 15.1403 5.65129 15.5456 5.65129 15.5456L 10.7964 22.039C 10.7964 22.039 0.530979 16.8939 0.870127 15.2313C 1.27545 13.0557 5.7671 10.1688 5.7671 10.1688L 4.02172 6.97588C 2.50796 7.62109 -0.0728716 6.6781 0.00157557 5.23051C 0.00157557 5.23051 3.16145 6.45475 3.07873 3.17081C 3.05377 2.63659 3.18031 2.1062 3.44375 1.64079C 3.70719 1.17538 4.09681 0.793901 4.56767 0.540338L 4.5594 0.54861Z"/>
<path id="path7_fill" d="M 0.0304875 2.49892C -0.0640182 1.94247 0.0631467 1.37113 0.384743 0.90729C 0.706338 0.44345 1.19679 0.123993 1.75104 0.0173472C 2.02436 -0.0183504 2.30205 0.00117111 2.56768 0.0747565C 2.83331 0.148342 3.08147 0.274494 3.29745 0.445737C 3.51343 0.616981 3.69285 0.829834 3.82506 1.07168C 3.95728 1.31353 4.03961 1.57946 4.06718 1.85371C 4.16169 2.41016 4.03452 2.9815 3.71293 3.44534C 3.39133 3.90918 2.90088 4.22864 2.34662 4.33528C 2.07331 4.37098 1.79562 4.35146 1.52999 4.27788C 1.26436 4.20429 1.0162 4.07814 0.80022 3.90689C 0.584237 3.73565 0.404821 3.5228 0.272603 3.28095C 0.140385 3.0391 0.0580539 2.77317 0.0304875 2.49892L 0.0304875 2.49892Z"/>
<path id="path8_fill" fill-rule="evenodd" d="M 6.1543 6.94532L 5.55045 6.74679C 12.8297 5.66317 12.0604 -4.90833 20.4399 2.78455C 22.1128 4.2876 23.1877 6.34341 23.4674 8.57489L 25.1218 9.03811C 26.3129 4.00052 31.8799 6.67235 30.6309 9.91493C 32.8726 9.50961 37.0995 10.1135 37.935 12.198C 34.4277 10.4113 30.6971 13.1493 25.7339 13.0252C 20.7708 12.9011 8.7765 13.1741 3.96225 11.3708C 2.56507 10.8883 1.23393 10.2324 -7.57316e-07 9.41862C 6.23702 10.5188 12.4079 11.9002 17.7846 7.48299C 17.5196 5.84021 16.6453 4.35759 15.3361 3.33049C 12.8545 5.68799 9.73604 7.78905 6.13776 6.94532L 6.1543 6.94532Z"/>
</defs>
</svg>
