<svg width="257" height="49" viewBox="0 0 257 49" version="1.1" xmlns="http://www.w3.org/2000/svg" xmlns:xlink="http://www.w3.org/1999/xlink">
<title>logo</title>
<desc>Created using Figma</desc>
<g id="Canvas" transform="translate(-21077 -1641)">
<g id="logo">
<g id="&#208;&#161;&#208;&#187;&#208;&#190;&#208;&#185; 2">
<g id="&#208;&#161;&#208;&#187;&#208;&#190;&#208;&#185; 1">
<g id="Vector">
<use xlink:href="#path0_fill" transform="translate(21126.1 1673.55)" fill="#EF4741"/>
</g>
<g id="Vector">
<use xlink:href="#path1_fill" transform="translate(21111.9 1648.69)" fill="#0040AA"/>
</g>
<g id="Vector">
<use xlink:href="#path2_fill" transform="translate(21115.5 1653.33)" fill="#0040AA"/>
</g>
<g id="Vector">
<use xlink:href="#path3_fill" transform="translate(21114.9 1641.77)" fill="#ABB5D9"/>
</g>
<g id="Vector">
<use xlink:href="#path4_fill" transform="translate(21090.9 1684.19)" fill="#0040AA"/>
</g>
<clipPath id="clip-0" clip-rule="evenodd">
<path d="M 21090.9 1684.17L 21120.6 1684.17L 21120.6 1688.42L 21090.9 1688.42L 21090.9 1684.17Z" fill="#FFFFFF"/>
</clipPath>
<g id="Group" clip-path="url(#clip-0)">
</g>
<g id="Vector">
<use xlink:href="#path5_fill" transform="translate(21077 1681.79)" fill="#ABB5D9"/>
</g>
<g id="Vector">
<use xlink:href="#path6_fill" transform="translate(21097.2 1661.57)" fill="#ABB5D9"/>
</g>
<g id="Vector">
<use xlink:href="#path7_fill" transform="translate(21098.5 1657.48)" fill="#ABB5D9"/>
</g>
<g id="Vector">
<use xlink:href="#path8_fill" transform="translate(21121.2 1675.92)" fill="#EF4741"/>
</g>
<g id="Vector">
<use xlink:href="#path9_fill" transform="translate(21227.5 1653.84)" fill="#0040AA"/>
</g>
<g id="Vector">
<use xlink:href="#path10_fill" transform="translate(21162.6 1682.05)" fill="#444444"/>
</g>
<g id="Vector">
<use xlink:href="#path11_fill" transform="translate(21162.2 1653.86)" fill="#EF4741"/>
</g>
</g>
</g>
</g>
</g>
<defs>
<path id="path0_fill" fill-rule="evenodd" d="M -1.26219e-06 7.64325C 1.01973 7.89394 2.09629 7.75531 3.01925 7.25446C 6.61753 5.31057 6.42728 2.05144 9.67814 1.26219e-06C 4.18559 1.26219e-06 4.3593 6.08813 0.0248166 7.64325L -1.26219e-06 7.64325Z"/>
<path id="path1_fill" fill-rule="evenodd" d="M 10.9941 35.0646C 9.58783 32.9884 8.07407 31.3836 7.34614 28.3313C 7.40404 28.3892 7.48677 28.3892 7.54467 28.4967C 7.60257 28.6043 7.68529 28.6125 7.71011 28.6374C 9.28177 30.1511 11.0768 32.8229 13.9968 33.0463C 12.0032 30.2669 10.8286 30.2669 8.52075 25.1549C 6.93821 21.6366 6.2723 17.775 6.58513 13.9299C 10.6135 13.3922 14.6751 15.1045 16.4039 17.1229C 15.8745 12.6312 10.1999 11.3325 6.01436 10.6129C 1.16702 9.73604 0.0751332 2.19206 5.55114 0.363964L 4.14491 3.15548e-07C 3.6719 0.0324429 3.2117 0.16796 2.79659 0.397052C 2.07397 0.745639 1.4908 1.32881 1.14221 2.05143C -2.62151 9.93456 3.4997 32.3101 10.9941 35.0646Z"/>
<path id="path2_fill" fill-rule="evenodd" d="M 1.80562 0.0279297C 2.16729 -0.0370865 2.54023 0.0120601 2.8727 0.168552C 3.21867 0.31136 3.51699 0.549444 3.73298 0.855121C 3.95301 1.15252 4.09776 1.49878 4.15485 1.86429C 4.20667 2.23428 4.1581 2.6114 4.01423 2.95619C 3.89172 3.30418 3.6668 3.60696 3.36902 3.82474C 3.08924 4.06294 2.74816 4.21771 2.38466 4.27142C 2.02287 4.30806 1.65753 4.25991 1.31759 4.1308C 0.968077 3.99844 0.665768 3.76524 0.449032 3.46077C 0.224115 3.16617 0.0788313 2.81863 0.027166 2.4516C -0.0329155 2.08384 0.00708513 1.70668 0.142972 1.35971C 0.292408 1.02004 0.522389 0.721919 0.812998 0.491157C 1.09314 0.245568 1.43746 0.084886 1.80562 0.0279297L 1.80562 0.0279297Z"/>
<path id="path3_fill" fill-rule="evenodd" d="M 2.21705 0.010225C 2.34628 -0.00340833 2.47659 -0.00340833 2.60583 0.010225C 3.07004 -0.00279092 3.52859 0.114712 3.92933 0.349373C 4.3185 0.5851 4.64488 0.911472 4.8806 1.30064C 5.02783 1.59063 5.12302 1.9042 5.16185 2.2271L 5.16185 2.2271C 5.16185 2.36772 5.16185 2.48353 5.16185 2.59106C 5.16355 3.05394 5.04679 3.50955 4.8227 3.91457C 4.58697 4.30374 4.2606 4.63011 3.87143 4.86584C 3.46641 5.08993 3.0108 5.20668 2.54792 5.20499C 2.09519 5.20938 1.64957 5.09226 1.2575 4.86584C 0.87753 4.6374 0.568299 4.30812 0.364139 3.91457C 0.120792 3.51639 -0.00535802 3.05768 0.000172988 2.59106C -0.00501159 2.13489 0.121352 1.68688 0.364139 1.30064C 0.584005 0.89931 0.914074 0.569239 1.31541 0.349373C 1.58417 0.165208 1.89353 0.048844 2.21705 0.010225L 2.21705 0.010225Z"/>
<path id="path4_fill" fill-rule="evenodd" d="M -6.31097e-08 2.9575C 0.562729 2.85401 1.11604 2.70462 1.65438 2.51082C 12.4079 -0.24373 16.337 7.22581 26.6935 2.79206C 27.7503 2.38274 28.7575 1.85552 29.6962 1.2204C 28.6291 1.38584 27.3138 1.86561 26.1062 2.08895C 17.1229 3.68543 13.3343 -1.21982 6.36937 0.293944C 4.11234 0.819668 1.95938 1.71999 -6.31097e-08 2.9575Z"/>
<path id="path5_fill" fill-rule="evenodd" d="M 6.79591e-15 3.60642C 0.727928 4.81412 3.54038 6.18725 5.50082 6.31133C 9.54578 6.59258 14.0871 3.55679 17.9087 2.17538C 20.7129 1.19102 21.9537 1.13312 25.0143 1.53017C 23.0809 0.423472 20.8694 -0.102122 18.6449 0.0164074C 14.236 0.413459 11.1505 3.41616 6.85741 4.30953C 5.66739 4.57286 4.43872 4.61213 3.23432 4.42534C 2.13697 4.23493 1.05574 3.96116 0 3.60642L 6.79591e-15 3.60642Z"/>
<path id="path6_fill" d="M 4.5594 0.54861C 4.5594 0.54861 6.7101 -0.832799 9.96923 0.788496C 13.4269 2.50905 13.5675 8.531 12.0207 10.1771C 12.8479 7.61282 12.6245 2.99709 8.91042 4.38678C 8.91042 4.38678 11.6898 16.7946 21.5995 21.3773C 18.9443 22.1135 12.0786 18.267 8.30657 13.3039C 4.81583 15.1403 5.65129 15.5456 5.65129 15.5456L 10.7964 22.039C 10.7964 22.039 0.530979 16.8939 0.870127 15.2313C 1.27545 13.0557 5.7671 10.1688 5.7671 10.1688L 4.02172 6.97588C 2.50796 7.62109 -0.0728716 6.6781 0.00157557 5.23051C 0.00157557 5.23051 3.16145 6.45475 3.07873 3.17081C 3.05377 2.63659 3.18031 2.1062 3.44375 1.64079C 3.70719 1.17538 4.09681 0.793901 4.56767 0.540338L 4.5594 0.54861Z"/>
<path id="path7_fill" d="M 0.0304875 2.49892C -0.0640182 1.94247 0.0631467 1.37113 0.384743 0.90729C 0.706338 0.44345 1.19679 0.123993 1.75104 0.0173472C 2.02436 -0.0183504 2.30205 0.00117111 2.56768 0.0747565C 2.83331 0.148342 3.08147 0.274494 3.29745 0.445737C 3.51343 0.616981 3.69285 0.829834 3.82506 1.07168C 3.95728 1.31353 4.03961 1.57946 4.06718 1.85371C 4.16169 2.41016 4.03452 2.9815 3.71293 3.44534C 3.39133 3.90918 2.90088 4.22864 2.34662 4.33528C 2.07331 4.37098 1.79562 4.35146 1.52999 4.27788C 1.26436 4.20429 1.0162 4.07814 0.80022 3.90689C 0.584237 3.73565 0.404821 3.5228 0.272603 3.28095C 0.140385 3.0391 0.0580539 2.77317 0.0304875 2.49892L 0.0304875 2.49892Z"/>
<path id="path8_fill" fill-rule="evenodd" d="M 6.1543 6.94532L 5.55045 6.74679C 12.8297 5.66317 12.0604 -4.90833 20.4399 2.78455C 22.1128 4.2876 23.1877 6.34341 23.4674 8.57489L 25.1218 9.03811C 26.3129 4.00052 31.8799 6.67235 30.6309 9.91493C 32.8726 9.50961 37.0995 10.1135 37.935 12.198C 34.4277 10.4113 30.6971 13.1493 25.7339 13.0252C 20.7708 12.9011 8.7765 13.1741 3.96225 11.3708C 2.56507 10.8883 1.23393 10.2324 -7.57316e-07 9.41862C 6.23702 10.5188 12.4079 11.9002 17.7846 7.48299C 17.5196 5.84021 16.6453 4.35759 15.3361 3.33049C 12.8545 5.68799 9.73604 7.78905 6.13776 6.94532L 6.1543 6.94532Z"/>
<path id="path9_fill" fill-rule="evenodd" d="M 3.02926e-06 16.5009L 6.48518 15.3346C 7.03112 17.1792 8.42908 18.0974 10.6873 18.0974C 12.441 18.0974 13.3178 17.6314 13.3178 16.6994C 13.3254 16.4721 13.2728 16.2468 13.1653 16.0463C 13.0578 15.8458 12.8992 15.6774 12.7057 15.5579C 12.0302 15.188 11.293 14.9441 10.5301 14.8383C 6.5486 14.0772 3.98982 13.0791 2.85381 11.8438C 1.76076 10.6618 1.16786 9.10244 1.19943 7.4928C 1.18578 6.47181 1.40169 5.4608 1.83122 4.53446C 2.26074 3.60811 2.8929 2.79011 3.681 2.14087C 5.33538 0.718103 7.67634 0.00671883 10.7039 0.00671883C 15.3361 0.00671883 18.3967 1.8679 19.8857 5.59026L 14.0953 7.3439C 13.8236 6.61245 13.3178 5.99126 12.6566 5.5769C 11.9954 5.16254 11.2159 4.97822 10.4392 5.05258C 8.9116 5.05258 8.14783 5.52408 8.14783 6.46708C 8.14095 6.66241 8.18546 6.85613 8.27691 7.02887C 8.36836 7.20161 8.50355 7.34732 8.66896 7.45144C 9.29166 7.78226 9.96558 8.00597 10.6625 8.11319C 12.626 8.4765 14.561 8.97961 16.4528 9.61868C 17.6061 10.0828 18.5902 10.888 19.2736 11.9265C 20.0474 13.042 20.4471 14.3744 20.4151 15.7316C 20.4372 16.8228 20.1944 17.9031 19.7074 18.8799C 19.2205 19.8567 18.5039 20.7009 17.6192 21.34C 15.4772 22.8586 12.8882 23.6158 10.2654 23.4907C 4.75084 23.4907 1.32902 21.1718 3.02926e-06 16.534L 3.02926e-06 16.5009ZM 30.1925 14.8465L 30.1925 23.1184L 23.0952 23.1184L 23.0952 0.345867L 32.8147 0.345867C 34.6959 0.252799 36.5768 0.53396 38.3486 1.17306C 39.5794 1.70728 40.6222 2.59744 41.343 3.72908C 42.0838 4.87688 42.4694 6.2178 42.4514 7.58379C 42.486 8.57371 42.3007 9.55899 41.9088 10.4687C 41.5168 11.3784 40.9281 12.1899 40.1849 12.8447C 38.4912 14.2457 36.3333 14.96 34.1382 14.8465L 30.1925 14.8465ZM 30.0932 9.9661L 32.4176 9.9661C 34.4635 9.9661 35.4865 9.19681 35.4865 7.65824C 35.4865 6.21341 34.5407 5.49099 32.6492 5.49099L 30.0932 5.49099L 30.0932 9.9661ZM 54.9089 23.4493C 53.4525 23.501 52.0015 23.244 50.6515 22.6951C 49.3014 22.1462 48.0827 21.3179 47.0755 20.2646C 45.0571 18.1415 44.0479 15.3015 44.0479 11.7446C 43.9358 8.67328 44.9674 5.66966 46.9431 3.31548C 48.8732 1.10964 51.5505 0.00671883 54.9751 0.00671883C 56.4161 -0.0454619 57.852 0.206774 59.1889 0.74697C 60.5259 1.28717 61.7339 2.10318 62.7342 3.14177C 64.7305 5.23181 65.7286 8.01944 65.7286 11.5047C 65.7286 15.1167 64.7222 18.0119 62.7094 20.1902C 61.7225 21.2638 60.5153 22.1116 59.1704 22.6756C 57.8255 23.2395 56.3747 23.5063 54.9172 23.4576L 54.9089 23.4493ZM 54.9089 18.2959C 55.441 18.3243 55.9693 18.1919 56.4251 17.9161C 56.881 17.6402 57.2433 17.2336 57.465 16.7491C 57.9833 15.7178 58.2425 13.8346 58.2425 11.0994C 58.2425 7.13435 57.1754 5.15185 55.0413 5.15185C 52.7362 5.15185 51.5836 7.41284 51.5836 11.9348C 51.5836 16.1755 52.6866 18.2959 54.8924 18.2959L 54.9089 18.2959ZM 88.9313 23.1102L 81.1392 23.1102L 77.7808 14.4081L 75.6301 14.4081L 75.6301 23.1184L 68.632 23.1184L 68.632 0.345867L 80.5271 0.345867C 83.152 0.345867 85.1896 0.960745 86.64 2.1905C 87.349 2.78205 87.9136 3.52774 88.2907 4.37067C 88.6677 5.21361 88.8472 6.13152 88.8155 7.05439C 88.8325 8.26581 88.5483 9.46249 87.9883 10.5369C 87.2162 11.7484 86.0772 12.6816 84.7375 13.2004L 88.8734 23.1267L 88.9313 23.1102ZM 75.6963 9.56078L 78.6576 9.56078C 79.4035 9.59663 80.1425 9.40322 80.7752 9.00656C 81.0459 8.82742 81.2648 8.58031 81.41 8.28996C 81.5552 7.99962 81.6215 7.67623 81.6024 7.35217C 81.6024 5.8908 80.7063 5.16012 78.914 5.16012L 75.6963 5.16012L 75.6963 9.52769L 75.6963 9.56078ZM 101.811 5.80533L 101.811 23.1184L 95.1931 23.1184L 95.1931 5.8136L 90.4782 5.8136L 90.4782 0.345867L 106.526 0.345867L 106.526 5.80533L 101.811 5.80533Z"/>
<path id="path10_fill" fill-rule="evenodd" d="M 1.886 2.51142L 2.91171 2.51142C 3.63483 2.45745 4.357 2.62788 4.97969 2.99946C 5.21022 3.17879 5.3928 3.41237 5.51115 3.67938C 5.6295 3.94638 5.67994 4.23853 5.65799 4.52977C 5.67048 4.78072 5.62031 5.03084 5.51201 5.25756C 5.4037 5.48428 5.24066 5.68048 5.03759 5.82846C 4.50629 6.16018 3.88413 6.31645 3.25913 6.27514L 2.77683e-06 6.27514L 2.77683e-06 0.145653L 5.17821 0.145653L 5.17821 1.38644L 1.86945 1.38644L 1.86945 2.51142L 1.886 2.51142ZM 1.886 4.99299L 2.85381 4.99299C 3.44939 4.99299 3.74718 4.77792 3.74718 4.34778C 3.74718 3.91764 3.44939 3.73015 2.85381 3.78529L 1.886 3.78529L 1.886 4.99299ZM 10.4392 5.29905L 8.28845 5.29905L 7.98239 6.30823L 6.04677 6.30823L 8.3629 0.162198L 10.4392 0.162198L 12.7387 6.30823L 10.7535 6.30823L 10.4474 5.29905L 10.4392 5.29905ZM 10.0338 3.96728L 9.36381 1.75868L 8.70205 3.94246L 10.0338 3.96728ZM 17.189 2.96637C 17.5125 3.02085 17.8045 3.19278 18.009 3.44922C 18.2136 3.70566 18.3163 4.02857 18.2975 4.35606C 18.3026 4.63838 18.2427 4.9181 18.1221 5.17347C 18.0016 5.42884 17.8239 5.65297 17.6026 5.82846C 17.0379 6.24674 16.3435 6.45184 15.6422 6.40749C 15.0513 6.47802 14.4548 6.33388 13.9613 6.00136C 13.4678 5.66883 13.1103 5.17006 12.9538 4.59594L 14.7488 4.46359C 14.7908 4.65019 14.8962 4.81646 15.047 4.9341C 15.1979 5.05173 15.3848 5.11347 15.576 5.1088C 15.7929 5.12346 16.0069 5.05214 16.1716 4.91027C 16.2419 4.83847 16.2965 4.7529 16.3321 4.65894C 16.3677 4.56498 16.3835 4.46467 16.3784 4.36433C 16.3813 4.25843 16.3597 4.15329 16.3152 4.05714C 16.2707 3.96099 16.2046 3.87644 16.122 3.81011C 15.923 3.65862 15.6769 3.58243 15.4271 3.59504L 14.9143 3.59504L 14.9143 2.47833L 15.3196 2.47833C 15.527 2.4888 15.7307 2.42089 15.8903 2.28808C 15.9606 2.21972 16.0154 2.1371 16.0511 2.04578C 16.0868 1.95446 16.1025 1.85657 16.0971 1.75868C 16.0971 1.4278 15.8903 1.26236 15.4767 1.26236C 15.3891 1.2496 15.2998 1.25456 15.2141 1.27695C 15.1284 1.29933 15.0481 1.33869 14.9779 1.39269C 14.9077 1.44668 14.8491 1.51422 14.8055 1.5913C 14.7618 1.66837 14.7341 1.75342 14.724 1.84139L 13.0283 1.64287C 13.304 0.578548 14.1312 0.0463913 15.5098 0.0463913C 16.1394 0.0118802 16.7648 0.167512 17.3048 0.493072C 17.5072 0.61849 17.6736 0.794063 17.7881 1.00276C 17.9026 1.21146 17.9613 1.4462 17.9583 1.68423C 17.9711 1.95538 17.898 2.22364 17.7495 2.45086C 17.601 2.67808 17.3846 2.85269 17.1311 2.94983L 17.189 2.96637ZM 21.143 2.52796L 22.1605 2.52796C 22.8836 2.474 23.6057 2.64443 24.2284 3.01601C 24.459 3.19533 24.6415 3.42891 24.7599 3.69592C 24.8782 3.96293 24.9287 4.25507 24.9067 4.54631C 24.9192 4.79726 24.8691 5.04738 24.7607 5.2741C 24.6524 5.50083 24.4894 5.69702 24.2863 5.845C 23.755 6.17673 23.1329 6.33299 22.5079 6.29168L 19.2487 6.29168L 19.2487 0.145653L 21.1099 0.145653L 21.1099 2.51142L 21.143 2.52796ZM 21.143 5.00954L 22.1108 5.00954C 22.7064 5.00954 23.0042 4.79447 23.0042 4.36433C 23.0042 3.93419 22.7064 3.74669 22.1108 3.80184L 21.1099 3.80184L 21.1099 5.00954L 21.143 5.00954ZM 25.3699 0.187012L 27.2725 0.187012L 27.2725 6.33304L 25.3699 6.33304L 25.3699 0.145653L 25.3699 0.187012ZM 37.8357 7.63173L 36.3054 7.63173L 36.3054 6.29168L 32.3845 6.29168L 32.3845 7.62346L 30.8542 7.62346L 30.8542 4.86891L 31.4912 4.86891C 31.8623 3.78872 32.0442 2.65258 32.0288 1.51052L 32.0288 0.145653L 37.1822 0.145653L 37.1822 4.87719L 37.844 4.87719L 37.844 7.62346L 37.8357 7.63173ZM 35.2797 4.87719L 35.2797 1.65114L 33.7494 1.65114L 33.7494 1.73386C 33.7219 2.79153 33.5776 3.84292 33.3193 4.86891L 35.2797 4.87719ZM 44.2713 6.29168L 42.377 6.29168L 42.377 1.65941L 40.8881 1.65941L 40.8881 3.57022C 40.9039 4.1437 40.8623 4.71731 40.764 5.28251C 40.735 5.45477 40.668 5.6184 40.5679 5.7615C 40.4677 5.9046 40.3369 6.02355 40.1849 6.1097C 39.7218 6.312 39.2168 6.39995 38.7125 6.36613C 38.474 6.36317 38.2361 6.34104 38.0012 6.29995L 38.0012 5.00126L 38.2824 5.00126C 38.3804 5.01123 38.4795 5.00096 38.5734 4.97108C 38.6673 4.9412 38.7541 4.89235 38.8283 4.82755C 38.9534 4.6463 39.0092 4.42612 38.9855 4.20716L 38.9855 0.145653L 44.2713 0.145653L 44.2713 6.29168ZM 50.9632 6.29168L 50.9632 0.145653L 47.7951 0.145653C 47.3407 0.127626 46.8863 0.177815 46.4468 0.294548C 46.1397 0.39197 45.8745 0.590157 45.694 0.857038C 45.514 1.13525 45.41 1.45584 45.3926 1.78678C 45.3752 2.11773 45.4449 2.44746 45.5948 2.74303C 45.7397 2.99369 45.948 3.20191 46.1986 3.34688C 46.4083 3.46088 46.6343 3.5418 46.8686 3.58677C 46.6932 3.63672 46.526 3.71195 46.3723 3.81011C 46.2586 3.90594 46.156 4.01415 46.0663 4.13271C 45.9658 4.25061 45.8772 4.37805 45.8016 4.51322L 44.8751 6.29168L 47.0175 6.29168L 48.035 4.39741C 48.1168 4.21786 48.2352 4.05729 48.3824 3.92592C 48.5193 3.8339 48.6807 3.78492 48.8456 3.78529L 49.0111 3.78529L 49.0111 6.26687L 50.9632 6.29168ZM 49.0607 2.64377L 48.2335 2.64377C 48.0632 2.63105 47.8944 2.60337 47.7289 2.56105C 47.6064 2.539 47.4969 2.47094 47.4229 2.3708C 47.3424 2.26969 47.2987 2.14429 47.2988 2.0151C 47.2939 1.9298 47.3084 1.8445 47.3414 1.76567C 47.3744 1.68684 47.4249 1.61655 47.489 1.56015C 47.7024 1.43089 47.9525 1.37565 48.2004 1.40298L 49.0276 1.40298L 49.0276 2.65204L 49.0607 2.64377ZM 59.1607 3.77702L 60.8151 4.28161C 60.7236 4.70362 60.5431 5.10124 60.2857 5.44795C 60.0532 5.75718 59.7458 6.00203 59.3923 6.15933C 58.9616 6.33218 58.4996 6.41386 58.0357 6.39922C 57.4699 6.42153 56.9059 6.32282 56.3813 6.1097C 55.9248 5.88205 55.5452 5.5254 55.2895 5.08399C 54.96 4.51471 54.7993 3.86344 54.8262 3.20626C 54.8008 2.7806 54.8609 2.35415 55.003 1.95209C 55.145 1.55003 55.3662 1.1805 55.6534 0.865309C 56.2289 0.400212 56.9307 0.118476 57.668 0.0565394C 58.4054 -0.00539726 59.1443 0.155316 59.7894 0.51789C 60.2448 0.873004 60.5774 1.36189 60.7406 1.91584L 59.0863 2.28808C 59.0473 2.14423 58.9859 2.00743 58.9043 1.88275C 58.8024 1.7435 58.6692 1.63016 58.5155 1.55188C 58.258 1.42984 57.9657 1.40276 57.6902 1.47542C 57.4147 1.54808 57.1738 1.7158 57.01 1.94893C 56.811 2.31877 56.722 2.73784 56.7536 3.15663C 56.7062 3.64423 56.8164 4.13418 57.0679 4.55458C 57.2861 4.78375 57.5846 4.91951 57.9008 4.93339C 58.2169 4.94727 58.5262 4.83819 58.7637 4.62903C 58.9736 4.37434 59.1133 4.06924 59.169 3.74393L 59.1607 3.77702ZM 67.6311 6.25859L 65.7369 6.25859L 65.7369 1.62633L 63.6523 1.62633L 63.6523 6.25859L 61.725 6.25859L 61.725 0.145653L 67.6063 0.145653L 67.6063 6.29168L 67.6311 6.25859ZM 68.6486 3.18972C 68.6076 2.76239 68.6616 2.33129 68.8067 1.92729C 68.9519 1.52329 69.1846 1.15637 69.4881 0.852822C 69.7917 0.549273 70.1586 0.316599 70.5626 0.171462C 70.9666 0.0263252 71.3977 -0.027684 71.825 0.0133029C 72.2546 -0.0140801 72.6854 0.0450213 73.0917 0.187107C 73.4981 0.329193 73.8718 0.551374 74.1908 0.840494C 74.4782 1.14879 74.6998 1.51244 74.842 1.90924C 74.9843 2.30603 75.0441 2.72766 75.018 3.14836C 75.0405 3.75642 74.9156 4.36092 74.654 4.91027C 74.4175 5.36444 74.052 5.73856 73.6035 5.98562C 73.0749 6.25753 72.4852 6.38858 71.8912 6.36613C 71.3001 6.38618 70.7121 6.2731 70.1706 6.03525C 69.7169 5.80669 69.3401 5.45007 69.087 5.00954C 68.7873 4.46012 68.6415 3.83994 68.6651 3.21453L 68.6486 3.18972ZM 70.5428 3.18972C 70.5006 3.66311 70.6233 4.13654 70.8903 4.52977C 71.013 4.65711 71.1601 4.7584 71.3228 4.82759C 71.4856 4.89677 71.6606 4.93243 71.8374 4.93243C 72.0142 4.93243 72.1893 4.89677 72.352 4.82759C 72.5147 4.7584 72.6618 4.65711 72.7845 4.52977C 73.0535 4.10371 73.1728 3.60018 73.1237 3.09873C 73.1624 2.64894 73.0392 2.20011 72.7763 1.83312C 72.6572 1.70039 72.51 1.59588 72.3455 1.52719C 72.1809 1.45851 72.0031 1.42738 71.825 1.43607C 71.65 1.42917 71.4757 1.46206 71.3152 1.53227C 71.1547 1.60247 71.0123 1.70817 70.8985 1.84139C 70.6297 2.23688 70.5069 2.71357 70.5511 3.18972L 70.5428 3.18972ZM 76.0271 0.104294L 79.187 0.104294C 79.7465 0.0597412 80.3013 0.234789 80.7338 0.592337C 80.9118 0.776918 81.0493 0.996566 81.1376 1.23726C 81.2259 1.47796 81.2631 1.73443 81.2467 1.99029C 81.2657 2.26702 81.2237 2.54455 81.1236 2.80326C 81.0236 3.06198 80.8679 3.29556 80.6677 3.48751C 80.1843 3.87332 79.5717 4.05975 78.9554 4.00863L 77.9131 4.00863L 77.9131 6.28341L 76.0106 6.28341L 76.0106 0.145653L 76.0271 0.104294ZM 77.9297 2.73476L 78.4012 2.73476C 78.6744 2.76158 78.9487 2.69448 79.1787 2.54451C 79.2506 2.48547 79.308 2.41083 79.3467 2.32627C 79.3854 2.2417 79.4044 2.14943 79.4021 2.05646C 79.4032 1.96598 79.3862 1.8762 79.3521 1.79238C 79.318 1.70856 79.2675 1.63242 79.2035 1.56842C 78.9957 1.41062 78.7348 1.33946 78.4756 1.3699L 77.9297 1.3699L 77.9297 2.74303L 77.9297 2.73476ZM 81.8009 0.104294L 87.5913 0.104294L 87.5913 1.62633L 85.6308 1.62633L 85.6308 6.25032L 83.7283 6.25032L 83.7283 1.65941L 81.7844 1.65941L 81.7844 0.145653L 81.8009 0.104294ZM 94.3081 0.104294L 94.3081 6.25032L 92.5213 6.25032L 92.5213 2.91674L 90.2383 6.29168L 88.435 6.29168L 88.435 0.145653L 90.23 0.145653L 90.23 3.57022L 92.5296 0.170468L 94.3081 0.104294ZM 95.5902 0.104294L 99.1471 0.104294C 99.6413 0.071213 100.13 0.228022 100.512 0.542705C 100.666 0.679146 100.789 0.847438 100.872 1.03595C 100.955 1.22447 100.996 1.42872 100.992 1.6346C 101 1.97773 100.879 2.31148 100.653 2.56932C 100.472 2.76296 100.244 2.90561 99.9909 2.98292C 100.368 3.05052 100.712 3.24276 100.967 3.52886C 101.183 3.80742 101.294 4.15283 101.281 4.50495C 101.281 4.79551 101.204 5.08081 101.058 5.33214C 100.913 5.5828 100.705 5.79102 100.454 5.93599C 100.229 6.04616 99.9845 6.11347 99.7344 6.13451C 99.4602 6.17573 99.1842 6.20334 98.9072 6.21724L 95.5985 6.21724L 95.5985 0.145653L 95.5902 0.104294ZM 97.501 2.51969L 98.3282 2.51969C 98.5469 2.54053 98.7662 2.48499 98.9486 2.36253C 99.0087 2.30546 99.0554 2.23583 99.0854 2.15861C 99.1154 2.08139 99.128 1.99849 99.1223 1.91584C 99.1266 1.83702 99.1133 1.75823 99.0832 1.68524C 99.0532 1.61224 99.0072 1.54689 98.9486 1.49398C 98.7705 1.37625 98.5572 1.32365 98.3447 1.34508L 97.5175 1.34508L 97.5175 2.51142L 97.501 2.51969ZM 97.501 4.93509L 98.4688 4.93509C 98.7135 4.95897 98.959 4.8976 99.1637 4.76138C 99.2295 4.70412 99.2816 4.63271 99.316 4.5525C 99.3504 4.47228 99.3662 4.38533 99.3622 4.29815C 99.3654 4.21468 99.3492 4.13159 99.3147 4.05549C 99.2803 3.97939 99.2285 3.91237 99.1637 3.85974C 98.9541 3.72822 98.7068 3.67004 98.4605 3.6943L 97.4927 3.6943L 97.4927 4.93509L 97.501 4.93509ZM 102.266 0.112565L 104.16 0.112565L 104.16 2.25499L 106.236 2.25499L 106.236 0.145653L 108.139 0.145653L 108.139 6.29168L 106.236 6.29168L 106.236 3.81011L 104.16 3.81011L 104.16 6.29168L 102.266 6.29168L 102.266 0.145653L 102.266 0.112565ZM 111.274 2.51142L 112.291 2.51142C 113.014 2.45745 113.736 2.62788 114.359 2.99946C 114.59 3.17879 114.772 3.41237 114.891 3.67938C 115.009 3.94638 115.059 4.23853 115.037 4.52977C 115.05 4.78072 115 5.03084 114.891 5.25756C 114.783 5.48428 114.62 5.68048 114.417 5.82846C 113.886 6.16018 113.264 6.31645 112.639 6.27514L 109.379 6.27514L 109.379 0.145653L 111.274 0.145653L 111.274 2.51142ZM 111.274 4.99299L 112.242 4.99299C 112.837 4.99299 113.135 4.77792 113.135 4.34778C 113.135 3.91764 112.837 3.73015 112.242 3.78529L 111.274 3.78529L 111.274 4.99299ZM 115.501 0.170468L 117.403 0.170468L 117.403 6.3165L 115.501 6.3165L 115.501 0.145653L 115.501 0.170468ZM 118.239 0.170468L 120.373 0.170468L 121.465 2.06474L 122.524 0.170468L 124.592 0.170468L 122.681 3.14836L 124.774 6.3165L 122.606 6.3165L 121.399 4.33951L 120.183 6.3165L 118.065 6.3165L 120.183 3.11527L 118.255 0.170468L 118.239 0.170468ZM 132.301 3.80184L 133.955 4.30642C 133.864 4.72843 133.683 5.12606 133.426 5.47276C 133.193 5.782 132.886 6.02684 132.533 6.18415C 132.102 6.35699 131.64 6.43868 131.176 6.42403C 130.61 6.44634 130.046 6.34764 129.522 6.13451C 129.065 5.90687 128.685 5.55022 128.43 5.1088C 128.1 4.53952 127.94 3.88826 127.966 3.23108C 127.941 2.80541 128.001 2.37897 128.143 1.97691C 128.285 1.57485 128.506 1.20532 128.794 0.890123C 129.369 0.425027 130.071 0.143294 130.808 0.0813572C 131.546 0.0194206 132.285 0.180131 132.93 0.542705C 133.393 0.886401 133.737 1.36657 133.914 1.91584L 132.26 2.28808C 132.221 2.14423 132.159 2.00743 132.078 1.88275C 131.976 1.7435 131.843 1.63016 131.689 1.55188C 131.431 1.42984 131.139 1.40276 130.864 1.47542C 130.588 1.54808 130.347 1.7158 130.183 1.94893C 129.984 2.31877 129.895 2.73784 129.927 3.15663C 129.88 3.64423 129.99 4.13418 130.241 4.55458C 130.459 4.78375 130.758 4.91951 131.074 4.93339C 131.39 4.94727 131.7 4.83819 131.937 4.62903C 132.147 4.37434 132.287 4.06924 132.342 3.74393L 132.301 3.80184ZM 136.793 2.53624L 137.81 2.53624C 138.533 2.48227 139.255 2.6527 139.878 3.02428C 140.109 3.2036 140.291 3.43718 140.409 3.70419C 140.528 3.9712 140.578 4.26334 140.556 4.55458C 140.569 4.80553 140.519 5.05565 140.41 5.28237C 140.302 5.5091 140.139 5.70529 139.936 5.85327C 139.405 6.185 138.782 6.34126 138.157 6.29995L 134.898 6.29995L 134.898 0.145653L 140.077 0.145653L 140.077 1.38644L 136.768 1.38644L 136.768 2.51142L 136.793 2.53624ZM 136.793 5.01781L 137.744 5.01781C 138.339 5.01781 138.637 4.80274 138.637 4.3726C 138.637 3.94246 138.339 3.73842 137.744 3.76048L 136.776 3.76048L 136.776 4.96818L 136.793 5.01781ZM 141.326 3.27243C 141.285 2.84511 141.339 2.41401 141.484 2.01001C 141.629 1.606 141.862 1.23909 142.165 0.93554C 142.469 0.631991 142.836 0.399317 143.24 0.25418C 143.644 0.109043 144.075 0.0550338 144.502 0.0960208C 144.932 0.0686377 145.362 0.127739 145.769 0.269825C 146.175 0.41191 146.549 0.634091 146.868 0.923212C 147.155 1.23151 147.377 1.59516 147.519 1.99196C 147.661 2.38875 147.721 2.81037 147.695 3.23108C 147.718 3.83914 147.593 4.44364 147.331 4.99299C 147.094 5.44716 146.729 5.82128 146.28 6.06834C 145.752 6.34025 145.162 6.4713 144.568 6.44885C 143.977 6.46889 143.389 6.35582 142.848 6.11797C 142.381 5.88678 141.995 5.52078 141.739 5.06744C 141.439 4.51803 141.294 3.89785 141.317 3.27243L 141.326 3.27243ZM 143.22 3.27243C 143.179 3.72548 143.29 4.17922 143.534 4.56285C 143.657 4.6902 143.804 4.79149 143.967 4.86067C 144.129 4.92986 144.304 4.96552 144.481 4.96552C 144.658 4.96552 144.833 4.92986 144.996 4.86067C 145.159 4.79149 145.306 4.6902 145.428 4.56285C 145.697 4.1368 145.817 3.63326 145.768 3.13181C 145.806 2.68203 145.683 2.2332 145.42 1.86621C 145.301 1.73348 145.154 1.62897 144.989 1.56028C 144.825 1.4916 144.647 1.46047 144.469 1.46916C 144.294 1.46226 144.12 1.49515 143.959 1.56536C 143.799 1.63556 143.656 1.74126 143.542 1.87448C 143.274 2.26997 143.151 2.74666 143.195 3.22281L 143.22 3.27243ZM 148.704 0.187012L 151.864 0.187012C 152.423 0.142459 152.978 0.317507 153.411 0.675055C 153.589 0.859636 153.726 1.07928 153.815 1.31998C 153.903 1.56068 153.94 1.81714 153.924 2.07301C 153.939 2.34171 153.896 2.61053 153.799 2.86156C 153.702 3.11259 153.553 3.34008 153.361 3.52886C 152.878 3.91468 152.265 4.10112 151.649 4.05L 150.607 4.05L 150.607 6.32477L 148.704 6.32477L 148.704 0.145653L 148.704 0.187012ZM 150.607 2.81748L 151.078 2.81748C 151.351 2.8443 151.626 2.7772 151.856 2.62723C 151.928 2.56819 151.985 2.49355 152.024 2.40899C 152.062 2.32442 152.081 2.23215 152.079 2.13918C 152.08 2.04871 152.063 1.95891 152.029 1.8751C 151.995 1.79128 151.945 1.71514 151.881 1.65114C 151.673 1.49334 151.412 1.42218 151.153 1.45261L 150.607 1.45261L 150.607 2.74303L 150.607 2.81748ZM 154.668 3.26416C 154.627 2.83684 154.681 2.40574 154.826 2.00174C 154.971 1.59773 155.204 1.23082 155.508 0.92727C 155.811 0.62372 156.178 0.391046 156.582 0.245909C 156.986 0.100773 157.417 0.0467633 157.845 0.0877502C 158.274 0.0603672 158.705 0.119469 159.111 0.261554C 159.518 0.40364 159.891 0.625821 160.21 0.914941C 160.498 1.22324 160.719 1.58689 160.862 1.98368C 161.004 2.38048 161.064 2.8021 161.038 3.22281C 161.06 3.83087 160.935 4.43537 160.674 4.98472C 160.437 5.43889 160.072 5.81301 159.623 6.06007C 159.095 6.33197 158.505 6.46303 157.911 6.44058C 157.32 6.46062 156.732 6.34754 156.19 6.1097C 155.729 5.85998 155.354 5.47643 155.115 5.00954C 154.815 4.46012 154.669 3.83994 154.693 3.21453L 154.668 3.26416ZM 156.562 3.26416C 156.52 3.73755 156.643 4.21099 156.91 4.60421C 157.033 4.73156 157.18 4.83285 157.342 4.90203C 157.505 4.97122 157.68 5.00688 157.857 5.00688C 158.034 5.00688 158.209 4.97122 158.372 4.90203C 158.534 4.83285 158.681 4.73156 158.804 4.60421C 159.073 4.17816 159.192 3.67462 159.143 3.17317C 159.182 2.72338 159.059 2.27456 158.796 1.90757C 158.677 1.77484 158.53 1.67033 158.365 1.60164C 158.201 1.53296 158.023 1.50183 157.845 1.51052C 157.67 1.50362 157.495 1.53651 157.335 1.60671C 157.174 1.67692 157.032 1.78262 156.918 1.91584C 156.649 2.31133 156.527 2.78802 156.571 3.26416L 156.562 3.26416ZM 162.063 0.178742L 165.62 0.178742C 166.114 0.14566 166.603 0.30247 166.985 0.617152C 167.139 0.753594 167.262 0.921885 167.345 1.1104C 167.428 1.29892 167.469 1.50317 167.465 1.70904C 167.473 2.05218 167.352 2.38592 167.126 2.64377C 166.945 2.8374 166.717 2.98006 166.464 3.05737C 166.841 3.12497 167.185 3.31721 167.44 3.60331C 167.656 3.88187 167.767 4.22728 167.754 4.5794C 167.754 4.86996 167.677 5.15526 167.531 5.40659C 167.386 5.65725 167.178 5.86547 166.927 6.01044C 166.702 6.12061 166.458 6.18792 166.208 6.20896C 165.933 6.25018 165.657 6.27779 165.38 6.29168L 162.072 6.29168L 162.072 0.145653L 162.063 0.178742ZM 163.974 2.59414L 164.801 2.59414C 165.02 2.61497 165.239 2.55944 165.422 2.43697C 165.482 2.37991 165.528 2.31027 165.558 2.23306C 165.589 2.15584 165.601 2.07294 165.595 1.99029C 165.6 1.91147 165.586 1.83268 165.556 1.75968C 165.526 1.68669 165.48 1.62134 165.422 1.56842C 165.244 1.45069 165.03 1.3981 164.818 1.41953L 163.991 1.41953L 163.991 2.58587L 163.974 2.59414ZM 163.974 5.00954L 164.942 5.00954C 165.187 5.03341 165.432 4.97205 165.637 4.83583C 165.703 4.77857 165.755 4.70716 165.789 4.62694C 165.823 4.54673 165.839 4.45978 165.835 4.3726C 165.839 4.28912 165.822 4.20604 165.788 4.12994C 165.753 4.05384 165.702 3.98682 165.637 3.93419C 165.427 3.80267 165.18 3.74448 164.934 3.76875L 163.966 3.76875L 163.966 5.00954L 163.974 5.00954Z"/>
<path id="path11_fill" fill-rule="evenodd" d="M 20.2496 23.1034L 12.5071 23.1034L 9.15701 14.3931L 7.00631 14.3931L 7.00631 23.1034L 0 23.1034L 0 0.330876L 11.895 0.330876C 14.52 0.330876 16.5576 0.945755 18.0079 2.17551C 18.717 2.76706 19.2816 3.51275 19.6586 4.35568C 20.0356 5.19861 20.2152 6.11653 20.1835 7.0394C 20.2005 8.25082 19.9162 9.4475 19.3563 10.5219C 18.5841 11.7334 17.4452 12.6666 16.1054 13.1854L 20.2414 23.1117L 20.2496 23.1034ZM 7.01458 9.55406L 10.0007 9.55406C 10.7467 9.59044 11.4859 9.39699 12.1184 8.99984C 12.3891 8.8207 12.608 8.57359 12.7531 8.28325C 12.8983 7.9929 12.9647 7.66951 12.9455 7.34546C 12.9455 5.88409 12.0494 5.1534 10.2572 5.1534L 7.0394 5.1534L 7.0394 9.52097L 7.01458 9.55406ZM 33.1456 23.4509C 31.6891 23.5026 30.2381 23.2455 28.8881 22.6967C 27.538 22.1478 26.3193 21.3195 25.3121 20.2662C 23.2937 18.1431 22.2845 15.303 22.2845 11.7461C 22.1724 8.67483 23.204 5.67121 25.1797 3.31704C 27.1098 1.11119 29.7871 0.00827163 33.2117 0.00827163C 34.6527 -0.0439091 36.0886 0.208328 37.4255 0.748524C 38.7625 1.28872 39.9705 2.10473 40.9708 3.14333C 42.9671 5.23336 43.9652 8.021 43.9652 11.5062C 43.9652 15.1183 42.9588 18.0135 40.946 20.1917C 39.9591 21.2654 38.7519 22.1132 37.407 22.6771C 36.0622 23.2411 34.6113 23.5078 33.1538 23.4591L 33.1456 23.4509ZM 33.1456 18.2975C 33.6776 18.3258 34.2059 18.1935 34.6618 17.9176C 35.1176 17.6418 35.4799 17.2351 35.7016 16.7506C 36.2199 15.7194 36.4791 13.8361 36.4791 11.1009C 36.4791 7.1359 35.412 5.1534 33.2779 5.1534C 30.9452 5.1534 29.7789 7.40612 29.7789 11.9116C 29.7789 16.1523 30.8818 18.2726 33.0876 18.2726L 33.1456 18.2975ZM 44.5691 16.4942L 51.0542 15.3279C 51.6002 17.1725 52.9981 18.0907 55.2564 18.0907C 57.01 18.0907 57.8868 17.6247 57.8868 16.6927C 57.8945 16.4654 57.8419 16.2401 57.7344 16.0396C 57.6269 15.8391 57.4683 15.6706 57.2747 15.5512C 56.5992 15.1813 55.862 14.9374 55.0992 14.8315C 51.1177 14.0705 48.5589 13.0724 47.4229 11.8371C 46.3298 10.6551 45.7369 9.09572 45.7685 7.48608C 45.7548 6.46509 45.9708 5.45408 46.4003 4.52774C 46.8298 3.60139 47.462 2.78339 48.2501 2.13415C 49.9044 0.711385 52.2454 3.15548e-07 55.2729 3.15548e-07C 59.9052 3.15548e-07 62.9658 1.86118 64.4547 5.58354L 58.6644 7.33718C 58.3915 6.60655 57.8854 5.98618 57.2246 5.57201C 56.5637 5.15783 55.7847 4.97292 55.0082 5.04587C 53.4807 5.04587 52.7169 5.51736 52.7169 6.46036C 52.71 6.65569 52.7545 6.84941 52.846 7.02215C 52.9374 7.19489 53.0726 7.3406 53.238 7.44472C 53.8607 7.77554 54.5346 7.99925 55.2316 8.10647C 57.1951 8.46979 59.1301 8.9729 61.0219 9.61196C 62.1588 10.081 63.1276 10.8825 63.8013 11.9116C 64.5751 13.027 64.9748 14.3594 64.9428 15.7166C 64.9649 16.8078 64.7221 17.8881 64.2351 18.8649C 63.7482 19.8417 63.0316 20.6859 62.1469 21.325C 60.0049 22.8437 57.4159 23.6009 54.7931 23.4757C 49.2785 23.4757 45.8567 21.1568 44.5277 16.519L 44.5691 16.4942Z"/>
</defs>
</svg>
