<svg width="30" height="31" viewBox="0 0 30 31" version="1.1" xmlns="http://www.w3.org/2000/svg" xmlns:xlink="http://www.w3.org/1999/xlink">
<title>soc-1</title>
<desc>Created using Figma</desc>
<g id="Canvas" transform="translate(-322 -3585)">
<g id="soc-1">
<g id="Capa_1">
<g id="Shape">
<use xlink:href="#path0_fill" transform="translate(322 3585.5)" fill="#FFFFFF"/>
</g>
</g>
</g>
</g>
<defs>
<path id="path0_fill" fill-rule="evenodd" d="M 0 0L 30 0L 30 30L 0 30L 0 0ZM 22.5512 16.58C 23.2485 17.2611 23.9863 17.9021 24.6123 18.6537C 24.8896 18.9861 25.1511 19.3299 25.35 19.7165C 25.6341 20.2679 25.3776 20.8724 24.8841 20.9052L 21.8189 20.9046C 21.0273 20.9701 20.3973 20.6508 19.8662 20.1096C 19.4422 19.6783 19.0488 19.2175 18.6404 18.7715C 18.4736 18.5885 18.2979 18.4161 18.0885 18.2805C 17.6706 18.0087 17.3076 18.0919 17.0682 18.5285C 16.8242 18.9726 16.7685 19.4649 16.7452 19.9593C 16.7119 20.682 16.4939 20.8709 15.7687 20.9049C 14.2191 20.9774 12.7488 20.7423 11.3823 19.9611C 10.1768 19.272 9.2437 18.2995 8.43064 17.1984C 6.84738 15.0518 5.63483 12.6959 4.54534 10.2723C 4.30013 9.72653 4.47952 9.43449 5.08166 9.42316C 6.08207 9.40387 7.08248 9.40632 8.08289 9.42224C 8.49003 9.42867 8.75942 9.66163 8.91585 10.0458C 9.45646 11.3759 10.1192 12.6414 10.9497 13.8151C 11.1711 14.1276 11.397 14.4393 11.7187 14.66C 12.0738 14.9037 12.3444 14.8232 12.5119 14.4267C 12.619 14.1748 12.6652 13.9054 12.6885 13.6354C 12.7681 12.7106 12.7776 11.7861 12.6398 10.865C 12.5541 10.2886 12.2299 9.91632 11.6553 9.80734C 11.3627 9.75193 11.4055 9.64357 11.5479 9.47642C 11.7949 9.18744 12.0264 9.00867 12.4889 9.00867L 15.9521 9.00806C 16.4979 9.1152 16.6203 9.3601 16.6944 9.90989L 16.6975 13.7585C 16.6911 13.9712 16.8043 14.6018 17.1864 14.7411C 17.4925 14.8421 17.6945 14.5966 17.8776 14.4029C 18.7081 13.5215 19.2998 12.4813 19.8297 11.4047C 20.0636 10.9299 20.2653 10.4386 20.4613 9.94632C 20.607 9.58234 20.8335 9.40326 21.2443 9.40938L 24.5792 9.41336C 24.6775 9.41336 24.7773 9.41428 24.8746 9.43112C 25.4367 9.52724 25.5906 9.76908 25.4168 10.3173C 25.1431 11.1788 24.6114 11.8963 24.0916 12.6157C 23.5344 13.3859 22.9402 14.1292 22.3886 14.9028C 21.8817 15.6099 21.9218 15.9659 22.5512 16.58Z"/>
</defs>
</svg>
